<svg xmlns="http://www.w3.org/2000/svg" width="200" height="96" viewBox="0 0 200 96">
  <rect width="200" height="96" fill="none"/>
  <path d="M398.151,189.071a12.633,12.633,0,0,1-.522-4.514v-8.37c0-3.969-2.019-5.988-6.033-5.988a11.774,11.774,0,0,0-8.483,3.47l-.091.068,1.429,1.678.091-.068a9.981,9.981,0,0,1,6.827-2.881c2.4,0,3.629,1.225,3.629,3.674v.839c-8.642,1.338-12.5,3.765-12.5,7.848,0,2.971,2,4.741,5.33,4.741A10.572,10.572,0,0,0,395,186.758a8.277,8.277,0,0,0,.431,2.4l.023.068H398.2Zm-3.107-10.161v5.557A9.422,9.422,0,0,1,388.4,187.3c-2.064,0-3.243-1.021-3.243-2.835C385.154,182.675,386.265,180.407,395.043,178.91Z" transform="translate(-316.101 -131.818)" fill="#173968"/>
  <path d="M482.026,170.2a7.453,7.453,0,0,0-6.873,3.856V170.54H472.5v18.849h2.654v-12.2c1.542-3.107,3.538-4.536,6.328-4.536.045,0,.476.023.726.045h.113l.272-2.5Z" transform="translate(-385.775 -131.817)" fill="#173968"/>
  <path d="M531,188.3l11.182-14.834.045-.023V171.7H528.507v2.291h10.3l-11.182,14.834-.023.023v1.7h15.106V188.3Z" transform="translate(-428.45 -132.978)" fill="#173968"/>
  <path d="M618.872,165.549a6.255,6.255,0,0,1-1.905.249c-2.336,0-2.813-1.111-2.813-2.926v-11.59h4.831v-2.314h-4.831V142.3H611.5v21.071c0,3.334,1.452,4.7,5.013,4.7a16.48,16.48,0,0,0,2.427-.2l.091-.023V165.5Z" transform="translate(-493.391 -110.226)" fill="#173968"/>
  <path d="M665.6,170.054h5.67v2.79a6.918,6.918,0,0,1,5.784-3.244c4.264,0,7.235,3.289,7.235,9.776s-2.994,9.708-7.3,9.708a7.083,7.083,0,0,1-5.716-2.518v9.3H665.6Zm13.042,9.368c0-3.153-1.089-5.126-3.629-5.126a5.486,5.486,0,0,0-3.7,1.837V183.1a5.116,5.116,0,0,0,3.765,1.724C677.44,184.82,678.642,182.846,678.642,179.421Z" transform="translate(-535.314 -131.375)" fill="#173968"/>
  <path d="M759.9,179.421c0-7.394,5.035-9.821,9.64-9.821,4.559,0,9.594,2.427,9.594,9.821,0,7.3-5.035,9.776-9.594,9.776S759.9,186.725,759.9,179.421Zm13.564.023c0-3.153-1.089-5.693-3.924-5.693-2.722,0-3.947,2.291-3.947,5.693,0,3.153,1.066,5.761,3.947,5.761C772.216,185.205,773.464,182.869,773.464,179.444Z" transform="translate(-608.334 -131.354)" fill="#173968"/>
  <path d="M855,179.421c0-7.394,5.035-9.821,9.64-9.821,4.559,0,9.594,2.427,9.594,9.821,0,7.3-5.035,9.776-9.594,9.776S855,186.725,855,179.421Zm13.541.023c0-3.153-1.089-5.693-3.924-5.693-2.722,0-3.947,2.291-3.947,5.693,0,3.153,1.066,5.761,3.947,5.761C867.316,185.205,868.541,182.869,868.541,179.444Z" transform="translate(-682.11 -131.354)" fill="#173968"/>
  <path d="M953.1,142.1h5.648v25.449H953.1Z" transform="translate(-757.959 -110.07)" fill="#173968"/>
  <path d="M85,170.1v19.28h17.4a1.9,1.9,0,0,1,1.905,1.905v17.4h19.28V191.149L102.533,170.1Z" transform="translate(-85.652 -131.814)" fill="#173968"/>
  <path d="M191.285,104.3a1.9,1.9,0,0,1-1.905-1.905V85H170.1v17.6l1.7,1.7,17.6,17.6,1.7,1.7h17.6v-19.28h-17.42Z" transform="translate(-151.662 -65.868)" fill="#00b9e5"/>
</svg>
